<svg width="29" height="32" viewBox="0 0 29 32" fill="none" xmlns="http://www.w3.org/2000/svg">
<path fill-rule="evenodd" clip-rule="evenodd" d="M2.78643 9.10718C1.03478 11.4822 0 14.4182 0 17.5974C0 20.7765 1.03478 23.7126 2.78643 26.0876C4.37601 25.5016 6.14636 25.0341 8.04762 24.71C8.27203 24.6726 8.49644 24.6352 8.72085 24.604C8.2845 22.5095 8.04139 20.1282 8.04139 17.6036C8.04139 16.4379 8.09126 15.3034 8.191 14.2125L7.71101 14.9917L4.30744 9.62457C3.78382 9.46873 3.27266 9.29419 2.78643 9.11341V9.10718Z" fill="#0B7572"/>
<path fill-rule="evenodd" clip-rule="evenodd" d="M8.20278 25.6389C6.47606 25.9319 4.86155 26.3496 3.40911 26.867C3.78313 27.3096 4.18209 27.7272 4.61221 28.1137C6.5945 29.9402 9.08796 31.2118 11.8557 31.6856C11.0578 30.8814 10.3472 29.697 9.76742 28.2134C9.44951 27.4031 9.16899 26.4992 8.92588 25.5205C8.68277 25.5579 8.43966 25.5953 8.20278 25.6389Z" fill="#0B7572"/>
<path fill-rule="evenodd" clip-rule="evenodd" d="M9.88034 25.3958C10.1048 26.2935 10.3666 27.1226 10.6595 27.8706C11.632 30.3578 12.9224 31.8975 14.3062 31.8975C15.6901 31.8975 16.9804 30.3578 17.9529 27.8706C18.2459 27.1226 18.5077 26.2935 18.7321 25.3958C17.3171 25.2275 15.8335 25.134 14.3125 25.134C12.7852 25.134 11.3078 25.2213 9.89281 25.3958H9.88034Z" fill="#0B7572"/>
<path fill-rule="evenodd" clip-rule="evenodd" d="M8.99505 17.5914C8.99505 20.0786 9.23816 22.4225 9.66828 24.4609C11.1581 24.2801 12.7103 24.1803 14.3061 24.1803C15.9019 24.1803 17.4541 24.2801 18.9439 24.4609C19.3741 22.4162 19.6172 20.0786 19.6172 17.5914C19.6172 15.1042 19.3741 12.7603 18.9439 10.7219C17.4541 10.9027 15.9019 11.0024 14.3061 11.0024C12.9285 11.0024 11.582 10.9276 10.2854 10.7905L9.70569 11.7318L9.38777 12.2492C9.13219 13.9011 8.99505 15.7026 8.99505 17.5976V17.5914Z" fill="#0B7572"/>
<path fill-rule="evenodd" clip-rule="evenodd" d="M10.834 9.89281C11.956 9.99878 13.1155 10.0486 14.2999 10.0486C15.8271 10.0486 17.3045 9.96138 18.7195 9.78684C18.4951 8.88919 18.2333 8.06012 17.9403 7.31208C16.9679 4.82486 15.6775 3.28516 14.2936 3.28516C13.8822 3.28516 13.477 3.4223 13.0843 3.68411C13.103 3.80255 13.1155 3.92722 13.1217 4.05189C13.1217 4.05813 13.1217 4.07059 13.1217 4.07683C13.1217 4.0893 13.1217 4.108 13.1279 4.12046C13.1342 4.1828 13.1404 4.24514 13.1404 4.30747C13.1404 4.31371 13.1404 4.31371 13.1404 4.32617C13.1404 4.40098 13.1404 4.46955 13.1404 4.54435C13.1404 5.64147 12.6853 6.85079 12.1118 7.77961L10.8215 9.88657L10.834 9.89281Z" fill="#0B7572"/>
<path fill-rule="evenodd" clip-rule="evenodd" d="M18.8314 6.96909C19.1493 7.77946 19.4298 8.68334 19.6729 9.66202C19.916 9.62462 20.1591 9.58722 20.396 9.54358C22.1227 9.2506 23.7373 8.83295 25.1897 8.31556C24.8157 7.87297 24.4105 7.45531 23.9866 7.0626C22.0105 5.24237 19.5108 3.97071 16.7493 3.49072C17.5473 4.29486 18.2579 5.47925 18.8376 6.96286L18.8314 6.96909Z" fill="#0B7572"/>
<path fill-rule="evenodd" clip-rule="evenodd" d="M19.8792 10.591C20.3155 12.6855 20.5586 15.0668 20.5586 17.5914C20.5586 20.116 20.3155 22.4973 19.8792 24.5918C20.1036 24.623 20.328 24.6604 20.5524 24.6978C22.4537 25.0219 24.224 25.4894 25.8136 26.0754C27.5652 23.7004 28.6 20.7643 28.6 17.5852C28.6 14.406 27.5652 11.47 25.8136 9.09497C24.224 9.68093 22.4537 10.1485 20.5524 10.4726C20.328 10.51 20.1036 10.5474 19.8792 10.5786V10.591Z" fill="#0B7572"/>
<path fill-rule="evenodd" clip-rule="evenodd" d="M19.6741 25.5267C19.4372 26.5054 19.1505 27.4093 18.8325 28.2197C18.2528 29.697 17.5484 30.8877 16.7443 31.6918C19.512 31.2118 22.0055 29.9464 23.9815 28.1199C24.4054 27.7272 24.8106 27.3096 25.1846 26.867C23.7322 26.3496 22.1177 25.9382 20.3909 25.6389C20.1541 25.5953 19.911 25.5579 19.6678 25.5205L19.6741 25.5267Z" fill="#0B7572"/>
<path fill-rule="evenodd" clip-rule="evenodd" d="M9.14498 5.26742C8.7585 5.65391 8.2224 5.89702 7.63021 5.89702C7.03801 5.89702 6.50192 5.66014 6.11544 5.26742C5.72895 4.88094 5.48584 4.34484 5.48584 3.75265C5.48584 3.16045 5.72272 2.62436 6.11544 2.23787C6.50192 1.85139 7.03801 1.60828 7.63021 1.60828C8.2224 1.60828 8.7585 1.84516 9.14498 2.23787C9.53147 2.62436 9.77458 3.16045 9.77458 3.75265C9.77458 4.34484 9.5377 4.88094 9.14498 5.26742ZM8.93304 11.1769C8.92057 11.1956 8.9081 11.2143 8.89564 11.233L8.93304 11.1769ZM12.187 4.13913C12.187 4.14537 12.187 4.1516 12.187 4.1516C12.187 4.14537 12.187 4.13913 12.187 4.13913ZM4.40742 1.32153C3.57835 2.1506 3.06719 3.29136 3.06719 4.55055C3.06719 5.31729 3.48484 6.38324 4.09574 7.53646C4.10197 7.5427 4.10821 7.54893 4.12067 7.55516C4.15184 7.58633 4.18301 7.62373 4.20171 7.66114L4.61313 8.30943C4.61936 8.31567 4.61936 8.3219 4.6256 8.32814L7.71125 13.1904L8.37201 12.1182C8.38448 12.0995 8.39694 12.0745 8.40941 12.0558L8.9081 11.2455L8.9455 11.1831L11.333 7.29335C11.8628 6.2274 12.2182 5.26119 12.2182 4.55679C12.2182 4.47575 12.2182 4.41965 12.2182 4.37601C12.2182 4.36978 12.2182 4.36354 12.2182 4.36354C12.2182 4.32614 12.2119 4.27627 12.2057 4.21394C12.2057 4.20147 12.2057 4.189 12.1995 4.1703C12.1995 4.16407 12.1995 4.15783 12.1995 4.15783C12.0997 3.06071 11.6135 2.0758 10.8779 1.34023C10.0489 0.511158 8.9081 0 7.64891 0C6.38971 0 5.24896 0.511158 4.41989 1.34023L4.40742 1.32153Z" fill="#0B7572"/>
</svg>
