<svg width="20" height="20" viewBox="0 0 20 20" fill="none" xmlns="http://www.w3.org/2000/svg">
<path d="M14.5862 0H5.41382C2.42859 0 0 2.42859 0 5.41382V14.5863C0 17.5714 2.42859 20 5.41382 20H14.5863C17.5714 20 20 17.5714 20 14.5863V5.41382C20 2.42859 17.5714 0 14.5862 0V0ZM10 15.4686C6.98456 15.4686 4.5314 13.0154 4.5314 10C4.5314 6.98456 6.98456 4.5314 10 4.5314C13.0154 4.5314 15.4686 6.98456 15.4686 10C15.4686 13.0154 13.0154 15.4686 10 15.4686V15.4686ZM15.5994 5.82108C14.7083 5.82108 13.9835 5.09628 13.9835 4.20517C13.9835 3.31406 14.7083 2.58911 15.5994 2.58911C16.4905 2.58911 17.2154 3.31406 17.2154 4.20517C17.2154 5.09628 16.4905 5.82108 15.5994 5.82108Z" fill="#BFBFC7"/>
<path d="M9.99967 6.66659C8.16177 6.66659 6.66637 8.16187 6.66637 9.99989C6.66637 11.8378 8.16177 13.3332 9.99967 13.3332C11.8377 13.3332 13.333 11.8378 13.333 9.99989C13.333 8.16187 11.8377 6.66659 9.99967 6.66659V6.66659Z" fill="#BFBFC7"/>
<path d="M15.5992 3.76157C15.3548 3.76157 15.1558 3.96054 15.1558 4.20499C15.1558 4.44944 15.3548 4.64841 15.5992 4.64841C15.8438 4.64841 16.0428 4.44959 16.0428 4.20499C16.0428 3.96039 15.8438 3.76157 15.5992 3.76157Z" fill="#BFBFC7"/>
</svg>
