<svg width="20" height="20" viewBox="0 0 20 20" fill="none" xmlns="http://www.w3.org/2000/svg">
<path d="M19.9952 20V19.9992H20.0002V12.7841C20.0002 9.25437 19.2327 6.53539 15.0647 6.53539C13.0611 6.53539 11.7165 7.62397 11.1676 8.65598H11.1096V6.86491H7.15778V19.9992H11.2727V13.4956C11.2727 11.7832 11.6006 10.1274 13.7425 10.1274C15.853 10.1274 15.8844 12.0816 15.8844 13.6054V20H19.9952Z" fill="#BFBFC7"/>
<path d="M0.327785 6.86498H4.44769V19.9992H0.327785V6.86498Z" fill="#BFBFC7"/>
<path d="M2.38617 0C1.06889 0 0 1.05825 0 2.36241C0 3.66658 1.06889 4.74696 2.38617 4.74696C3.70344 4.74696 4.77233 3.66658 4.77233 2.36241C4.7715 1.05825 3.70261 0 2.38617 0V0Z" fill="#BFBFC7"/>
</svg>
