<svg width="30" height="31" viewBox="0 0 30 31" fill="none" xmlns="http://www.w3.org/2000/svg">
<path fill-rule="evenodd" clip-rule="evenodd" d="M28.1421 9.09644H1.86322C1.5459 9.09644 1.25208 9.22571 1.04053 9.43726C0.828986 9.64881 0.699707 9.93675 0.699707 10.2599V29.0289C0.699707 29.3462 0.828986 29.64 1.04053 29.8516C1.25208 30.0631 1.54002 30.1924 1.86322 30.1924H28.1421C28.4594 30.1924 28.7532 30.0631 28.9589 29.8516C29.1704 29.64 29.2997 29.3521 29.2997 29.0289V10.2599C29.2997 9.94262 29.1704 9.64881 28.9589 9.43726C28.7473 9.22571 28.4594 9.09644 28.1421 9.09644ZM15.5491 21.3015V27.3306C15.5491 27.6303 15.3023 27.8771 15.0026 27.8771C14.703 27.8771 14.4561 27.6303 14.4561 27.3306V21.3015C13.8979 21.0841 13.5042 20.5435 13.5042 19.9088C13.5042 19.0803 14.1741 18.4104 15.0026 18.4104C15.8312 18.4104 16.5011 19.0803 16.5011 19.9088C16.5011 20.5435 16.1074 21.0841 15.5491 21.3015Z" fill="#0B7572"/>
<path fill-rule="evenodd" clip-rule="evenodd" d="M26.6676 11.4118C26.5736 8.33256 25.2867 5.55307 23.2535 3.51987C21.1439 1.41027 18.2233 0.0998535 15.0031 0.0998535C11.7829 0.0998535 8.86237 1.40439 6.75278 3.51987C4.71957 5.55307 3.43266 8.33256 3.33864 11.4118H26.6676ZM24.1937 9.2669C23.7647 7.68029 22.9244 6.22297 21.7374 5.04183C19.9451 3.24956 17.5417 2.25058 15.0031 2.25058C12.4645 2.25058 10.0611 3.24956 8.26886 5.04183C7.08185 6.22885 6.24154 7.68029 5.81257 9.2669H24.1937Z" fill="#0B7572"/>
</svg>
