<svg width="26" height="33" viewBox="0 0 26 33" fill="none" xmlns="http://www.w3.org/2000/svg">
<path fill-rule="evenodd" clip-rule="evenodd" d="M4.00903 24.6345H8.49562C8.79095 24.6345 9.02973 24.8733 9.02973 25.1686V29.6552C9.02973 29.9505 8.79095 30.1893 8.49562 30.1893H4.00903C3.71369 30.1893 3.47491 29.9505 3.47491 29.6552V25.1686C3.47491 24.8733 3.71369 24.6345 4.00903 24.6345ZM21.8486 18.3696H13.6231C13.3278 18.3696 13.089 18.1308 13.089 17.8355C13.089 17.5402 13.3278 17.3014 13.6231 17.3014H21.8486C22.1439 17.3014 22.3827 17.5402 22.3827 17.8355C22.3827 18.1308 22.1439 18.3696 21.8486 18.3696ZM9.36277 7.49874L5.16523 11.6963C5.13381 11.734 5.08983 11.7654 5.04584 11.7905C4.78821 11.9351 4.46774 11.8534 4.31693 11.5957L3.04761 9.39643C2.90309 9.14508 2.98478 8.81832 3.24241 8.66751C3.49376 8.52299 3.82051 8.60467 3.97132 8.86231L4.89503 10.4647L8.60872 6.75097C8.81609 6.54361 9.15541 6.54361 9.36277 6.75097C9.57013 6.95833 9.57013 7.29766 9.36277 7.50502V7.49874ZM6.62306 0.75H0.534118C0.238782 0.75 0 0.988782 0 1.28412V32.3886C0 32.684 0.238782 32.9227 0.534118 32.9227H24.8271C25.1224 32.9227 25.3612 32.684 25.3612 32.3886V1.28412C25.3612 0.988782 25.1224 0.75 24.8271 0.75H18.7381V3.65937C18.7381 3.95471 18.4993 4.19349 18.204 4.19349H7.15718C6.86184 4.19349 6.62306 3.95471 6.62306 3.65937V0.75ZM13.089 27.4119C13.089 27.1166 13.3278 26.8778 13.6231 26.8778H21.8486C22.1439 26.8778 22.3827 27.1166 22.3827 27.4119C22.3827 27.7072 22.1439 27.946 21.8486 27.946H13.6231C13.3278 27.946 13.089 27.7072 13.089 27.4119ZM9.36277 16.1137L5.16523 20.3113C5.13381 20.349 5.08983 20.3804 5.04584 20.4055C4.78821 20.5501 4.46774 20.4684 4.31693 20.2107L3.04761 18.0114C2.90309 17.7601 2.98478 17.4333 3.24241 17.2825C3.49376 17.138 3.82051 17.2197 3.97132 17.4773L4.89503 19.0797L8.60872 15.366C8.81609 15.1586 9.15541 15.1586 9.36277 15.366C9.57013 15.5733 9.57013 15.9127 9.36277 16.12V16.1137ZM13.6231 9.7546C13.3278 9.7546 13.089 9.51582 13.089 9.22048C13.089 8.92514 13.3278 8.68636 13.6231 8.68636H21.8486C22.1439 8.68636 22.3827 8.92514 22.3827 9.22048C22.3827 9.51582 22.1439 9.7546 21.8486 9.7546H13.6231Z" fill="#0B7572"/>
<path fill-rule="evenodd" clip-rule="evenodd" d="M18.2036 0.768799H7.15677V3.65932H18.2036V0.768799Z" fill="#0B7572"/>
</svg>
